#!OML:ASF C:\ViconDB\ViconDB\414\Spring2016\041811\Spring2016.ASF
:FULLY-SPECIFIED
:DEGREES
264
root 6.68259 22.9418 -39.0675 -175.296 -1.09153 -178.518
lowerback 5.71696 0.0213535 -3.49479
upperback -0.618944 -0.199128 0.564161
thorax -3.8358 -0.0207529 2.565
lowerneck -10.2322 -5.65695 -16.6548
upperneck 19.3043 -10.6381 19.8913
head 9.73023 -5.02374 8.563
rclavicle 2.73329e-016 5.56597e-015
rhumerus -11.1406 14.8994 -50.3121
rradius 113.885
rwrist -7.28265
rhand -35.3829 -25.8814
rfingers 7.12502
rthumb -8.51431 -55.6897
lclavicle 2.73329e-016 5.56597e-015
lhumerus -7.85951 -5.39314 33.9773
lradius 95.2501
lwrist 8.54987
lhand -37.5213 17.6812
lfingers 7.12502
lthumb -10.5775 47.395
rfemur -7.36826 -17.1295 16.955
rtibia 26.4493
rfoot -35.9253 12.7275
rtoes -18.8198
lfemur -0.374969 -4.19106 -12.6461
ltibia 10.5609
lfoot 15.2247 8.87984
ltoes -2.0256
265
root 6.66923 22.9663 -39.2908 -175.27 -1.10955 -178.488
lowerback 5.70981 0.00545161 -3.50402
upperback -0.273416 -0.22006 0.57814
thorax -3.47187 -0.0449278 2.58525
lowerneck -10.5394 -5.7091 -16.7042
upperneck 19.1525 -10.595 19.9412
head 9.73732 -4.97025 8.58761
rclavicle -2.48481e-015 2.38542e-015
rhumerus -12.8769 15.6834 -50.9064
rradius 112.823
rwrist -7.55307
rhand -35.4723 -26.5272
rfingers 7.12502
rthumb -8.60062 -56.332
lclavicle -2.48481e-015 2.38542e-015
lhumerus -9.4158 -6.87073 34.4264
lradius 94.8888
lwrist 8.7691
lhand -37.753 18.2087
lfingers 7.12502
lthumb -10.801 47.911
rfemur -7.76959 -17.0021 17.3302
rtibia 25.3824
rfoot -35.571 12.5567
rtoes -18.8919
lfemur -1.11123 -4.53323 -12.4575
ltibia 10.0037
lfoot 14.896 9.0217
ltoes -1.48984
266
root 6.65645 22.9726 -39.5139 -175.278 -1.09267 -178.502
lowerback 5.81048 0.00381033 -3.7115
upperback 0.0430755 -0.239785 0.658469
thorax -3.19851 -0.0637575 2.7865
lowerneck -10.7737 -5.73856 -16.7104
upperneck 19.0137 -10.4977 19.8449
head 9.71025 -4.90082 8.55606
rclavicle 2.38542e-015 5.96354e-015
rhumerus -14.6906 16.5112 -51.4446
rradius 111.607
rwrist -7.33698
rhand -35.4112 -26.7824
rfingers 7.12502
rthumb -8.54162 -56.5896
lclavicle 2.38542e-015 5.96354e-015
lhumerus -11.0814 -8.00551 35.2444
lradius 94.5015
lwrist 9.0968
lhand -37.6567 17.8913
lfingers 7.12502
lthumb -10.7081 47.5984
rfemur -8.17804 -17.0034 17.6696
rtibia 24.3746
rfoot -34.9693 12.4068
rtoes -18.8803
lfemur -1.87913 -4.44331 -12.3177
ltibia 9.56268
lfoot 14.7716 9.03966
ltoes -1.67076
267
root 6.639 22.9611 -39.7336 -175.173 -1.15841 -178.361
lowerback 6.0625 -0.0128988 -3.52761
upperback 0.204959 -0.261834 0.675245
thorax -3.17137 -0.0828041 2.70326
lowerneck -11.0596 -5.76702 -16.6561
upperneck 19.0558 -10.4648 19.7564
head 9.76637 -4.86258 8.51454
rclavicle -4.67144e-015 7.55382e-015
rhumerus -16.8284 17.3477 -52.2073
rradius 110.448
rwrist -6.96892
rhand -35.1688 -27.1512
rfingers 7.12502
rthumb -8.30771 -56.9679
lclavicle -4.67144e-015 7.55382e-015
lhumerus -12.8272 -9.2135 36.2081
lradius 93.9912
lwrist 9.0866
lhand -37.5967 17.5091
lfingers 7.12502
lthumb -10.6502 47.2191
rfemur -8.7987 -17.4203 18.1937
rtibia 23.4436
rfoot -34.3802 12.2336
rtoes -18.9752
lfemur -2.9026 -4.40584 -11.982
ltibia 9.32769
lfoot 14.5696 9.18728
ltoes -1.67361
